<svg xmlns="http://www.w3.org/2000/svg" xml:space="preserve" style="fill-rule:evenodd;clip-rule:evenodd;stroke-linejoin:round;stroke-miterlimit:1.41421" viewBox="0 0 101 163"><path d="M190.028 68.703c5.52 0 10.002 4.481 10.002 10.001v142.592c0 5.52-4.482 10.001-10.002 10.001h-80.009c-5.52 0-10.002-4.481-10.002-10.001V78.704c0-5.52 4.482-10.001 10.002-10.001zm-32.005 131.252c0-4.416-3.584-8-8-8-4.415 0-8 3.584-8 8 0 4.415 3.585 8 8 8 4.416 0 8-3.585 8-8m26.176-85.958h-68.398c-.799 0-1.448.649-1.448 1.448v11.582c0 .799.649 1.448 1.448 1.448h68.398c.799 0 1.448-.649 1.448-1.448v-11.582c0-.799-.649-1.448-1.448-1.448m0-28.507h-68.398c-.799 0-1.448.649-1.448 1.448V98.52c0 .799.649 1.448 1.448 1.448h68.398c.799 0 1.448-.649 1.448-1.448V86.938c0-.799-.649-1.448-1.448-1.448" style="fill:currentColor" transform="translate(-100.017 -68.703)"/></svg>